<?xml version="1.0" encoding="iso-8859-1"?>
<!-- Generator: Adobe Illustrator 19.0.1, SVG Export Plug-In . SVG Version: 6.00 Build 0)  -->
<svg version="1.1" id="Capa_1" xmlns="http://www.w3.org/2000/svg" xmlns:xlink="http://www.w3.org/1999/xlink" x="0px" y="0px"
	 viewBox="-49 141 512 512" style="enable-background:new -49 141 512 512;" xml:space="preserve">
<rect x="231" y="509" width="16" height="16"/>
<path d="M327,157c-56.536,0-104.008,75.296-116.736,184H151c-4.424,0-8,3.576-8,8v24H99.28l-29.624-44.44
	C68.168,326.336,65.672,325,63,325h-88c-2.952,0-5.664,1.624-7.056,4.224c-1.392,2.6-1.232,5.76,0.4,8.208L-1,383.424v27.16
	l-30.656,45.984c-1.632,2.456-1.792,5.608-0.4,8.208c1.392,2.6,4.104,4.224,7.056,4.224h88c2.672,0,5.168-1.336,6.656-3.56
	L99.28,421H111v16c0,2.128,0.84,4.16,2.344,5.656L135,464.312V485v64v80c0,4.424,3.576,8,8,8h128c4.424,0,8-3.576,8-8v-11.52
	c14.968,12.816,31.296,19.52,48,19.52c67.288,0,120-105.424,120-240S394.288,157,327,157z M95,405H15v-16h80h48v16h-24H95z
	 M58.72,341l21.336,32H11.28l-21.336-32H58.72z M58.72,453h-68.776l21.336-32h68.776L58.72,453z M127,433.688V421h24
	c4.424,0,8-3.576,8-8v-32v-24h58.416H263v24v32v64H151v-16c0-2.128-0.84-4.16-2.344-5.656L127,433.688z M274.296,341.712
	C283.248,268.44,307.736,229,327,229c26.488,0,56,68.992,56,168s-29.512,168-56,168c-18.528,0-37.784-33.552-48-83.592V421h16.496
	c1.44,36.528,7.376,104,31.504,104c31.104,0,32-114.896,32-128s-0.896-128-32-128c-24.128,0-30.064,67.472-31.504,104H279v-24
	c0-0.992-0.232-1.92-0.56-2.792c-0.096-0.264-0.224-0.488-0.344-0.736c-0.312-0.616-0.688-1.184-1.144-1.696
	c-0.168-0.192-0.32-0.4-0.504-0.576C275.808,342.6,275.104,342.072,274.296,341.712z M151,493h112v48H151V493z M319,373h-7.496
	c2.112-51.608,10.392-80.344,15.504-87.056C333.072,293.784,343,331.24,343,397s-9.928,103.216-15.992,111.056
	c-5.112-6.712-13.392-35.448-15.504-87.056H319c4.424,0,8-3.576,8-8v-32C327,376.576,323.424,373,319,373z M303.232,389H311v16
	h-7.768H279v-16H303.232z M263,621H151v-64h112v40.92V621z M327,621c-16.544,0-33.104-8.984-48-26.032V549v-13.096
	C291.76,564.752,308.52,581,327,581c34.904,0,72-64.488,72-184s-37.096-184-72-184c-32.784,0-59.392,50.032-68.672,128h-31.976
	c11.896-97.88,53.56-168,100.648-168c56.376,0,104,102.576,104,224S383.376,621,327,621z"/>
<rect x="103" y="253" width="96" height="16"/>
<rect x="71" y="253" width="16" height="16"/>
<rect x="39" y="253" width="16" height="16"/>
<rect x="71" y="285" width="96" height="16"/>
<rect x="39" y="285" width="16" height="16"/>
<rect x="7" y="285" width="16" height="16"/>
</svg>
