<?xml version="1.0" encoding="iso-8859-1"?>
<!-- Generator: Adobe Illustrator 19.0.1, SVG Export Plug-In . SVG Version: 6.00 Build 0)  -->
<svg version="1.1" id="Capa_1" xmlns="http://www.w3.org/2000/svg" xmlns:xlink="http://www.w3.org/1999/xlink" x="0px" y="0px"
	 viewBox="-49 141 512 512" style="enable-background:new -49 141 512 512;" xml:space="preserve">
<path d="M273.316,386.674c5.52,0,10.001-4.48,10.001-10.001s-4.48-10.001-10.001-10.001s-10.001,4.48-10.001,10.001
	S267.796,386.674,273.316,386.674z"/>
<path d="M141.306,548.847c5.52,0,10.001-4.48,10.001-10.001c0-5.53-4.48-10.001-10.001-10.001c-5.52,0-10.001,4.47-10.001,10.001
	C131.305,544.367,135.785,548.847,141.306,548.847z"/>
<path d="M41.298,386.674c5.52,0,10.001-4.48,10.001-10.001s-4.48-10.001-10.001-10.001s-10.001,4.48-10.001,10.001
	S35.778,386.674,41.298,386.674z"/>
<path d="M313.318,386.964h79.696c5.522,0,10.001-4.477,10.001-10.001c0-5.523-4.478-10.001-10.001-10.001h-79.696
	c-5.522,0-10.001,4.477-10.001,10.001C303.318,382.487,307.796,386.964,313.318,386.964z"/>
<path d="M463,416.857c0-0.13-0.015-0.256-0.02-0.385v-49.599c0-22.047-17.936-39.983-39.982-39.983h-39.983v-75.956
	c0-16.543-13.459-30.002-30.002-30.002h-9.961v-69.915c0-5.523-4.478-10.001-10.001-10.001H150.996
	c-0.115,0-0.225,0.013-0.339,0.017c-0.116,0.004-0.231,0.01-0.347,0.018c-0.425,0.029-0.844,0.077-1.253,0.157
	c-0.008,0.002-0.016,0.002-0.024,0.004c-0.443,0.088-0.871,0.212-1.291,0.357c-0.078,0.027-0.154,0.056-0.231,0.085
	c-0.399,0.148-0.787,0.316-1.16,0.512c-0.021,0.011-0.043,0.02-0.064,0.031c-0.39,0.208-0.759,0.447-1.116,0.703
	c-0.081,0.058-0.161,0.119-0.24,0.18c-0.353,0.27-0.695,0.555-1.008,0.869c-0.002,0.002-0.004,0.003-0.006,0.005l-68.684,68.831
	c-2.558,1.807-4.234,4.779-4.241,8.148h-9.732c-16.67,0-30.231,13.459-30.231,30.002v75.956H-9.017
	C-31.063,326.89-49,344.826-49,366.873v142.081c0,22.047,17.937,39.983,39.983,39.983h79.986v94.047
	c0,5.522,4.478,10.001,10.001,10.001h252.08c5.522,0,10.001-4.478,10.001-10.001v-94.047h79.946
	c22.047,0,39.982-17.936,39.982-39.983v-91.708C462.985,417.116,463,416.988,463,416.857z M353.011,240.933
	c5.514,0,10.001,4.486,10.001,10.001v75.956h-19.962v-85.957H353.011z M323.05,326.89H90.991v-93.877
	c0.141-0.665,0.217-1.353,0.219-2.06h59.786c5.522,0,10.001-4.477,10.001-10.001v-59.935h162.053V326.89H323.05z M140.995,175.197
	v35.754h-35.678L140.995,175.197z M51.029,250.934c0-5.42,4.685-10.001,10.23-10.001h9.731v85.957H51.028v-75.956H51.029z
	 M-9.017,346.891h432.014c11.018,0,19.981,8.964,19.981,19.982v39.983H-28.998v-39.983
	C-28.998,355.855-20.035,346.891-9.017,346.891z M323.05,632.983H90.972V488.972H323.05V632.983z M422.998,528.935h-79.946v-39.963
	h19.742c5.522,0,10.001-4.477,10.001-10.001s-4.478-10.001-10.001-10.001H50.988c-5.522,0-10.001,4.477-10.001,10.001
	s4.478,10.001,10.001,10.001h19.982v39.963H-9.017c-11.019,0-19.982-8.964-19.982-19.982v-82.096h471.977v82.096
	C442.978,519.972,434.016,528.935,422.998,528.935z"/>
<path d="M273.095,568.888h-131.92c-5.522,0-10.001,4.477-10.001,10.001c0,5.523,4.478,10.001,10.001,10.001h131.92
	c5.522,0,10.001-4.477,10.001-10.001C283.096,573.366,278.619,568.888,273.095,568.888z"/>
<path d="M273.095,528.885h-91.917c-5.522,0-10.001,4.477-10.001,10.001s4.478,10.001,10.001,10.001h91.917
	c5.522,0,10.001-4.477,10.001-10.001S278.619,528.885,273.095,528.885z"/>
</svg>
