<?xml version="1.0" encoding="iso-8859-1"?>
<!-- Generator: Adobe Illustrator 19.0.1, SVG Export Plug-In . SVG Version: 6.00 Build 0)  -->
<svg version="1.1" id="Capa_1" xmlns="http://www.w3.org/2000/svg" xmlns:xlink="http://www.w3.org/1999/xlink" x="0px" y="0px"
	 viewBox="-49 141 512 512" style="enable-background:new -49 141 512 512;" xml:space="preserve">
<path d="M207.947,474.998c-5.522,0-10,4.477-10,10s4.478,10,10,10h0.096c5.522,0,9.952-4.477,9.952-10
	S213.47,474.998,207.947,474.998z"/>
<path d="M-2,435c-2.63,0-5.21,1.07-7.07,2.93S-12,442.37-12,445c0,2.64,1.069,5.21,2.93,7.07S-4.63,455-2,455s5.21-1.07,7.069-2.93
	C6.93,450.21,8,447.63,8,445s-1.07-5.21-2.931-7.07C3.21,436.07,0.63,435-2,435z"/>
<path d="M421,160.998H-7c-23.159,0-42,18.841-42,42v282c0,27.57,22.43,50,50,50h152v38.004h-14c-23.159,0-42,18.841-42,42v8
	c0,5.523,4.478,10,10,10h200c5.522,0,10-4.477,10-10v-8c0-23.159-18.841-42-42-42h-14v-38.004h152c27.57,0,50-22.43,50-50v-282
	C463,179.839,444.159,160.998,421,160.998z M443,202.998v232.004H217V180.998h204C433.131,180.998,443,190.867,443,202.998z
	 M296.91,613.002H117.09c1.014-11.198,10.453-20,21.91-20h136C286.457,593.002,295.896,601.804,296.91,613.002z M241,573.002h-68
	v-38.004h68V573.002z M413,514.998H1c-16.542,0-30-13.458-30-30v-282c0-12.131,9.869-22,22-22h204v254.004H34
	c-5.522,0-10,4.477-10,10s4.478,10,10,10h409v29.996C443,501.54,429.542,514.998,413,514.998z"/>
<path d="M247.127,292.998h156c5.522,0,10-4.477,10-10v-72c0-5.523-4.478-10-10-10h-156c-5.522,0-10,4.477-10,10v72
	C237.127,288.521,241.604,292.998,247.127,292.998z M257.127,220.998h136v52h-136V220.998z"/>
<path d="M86.574,320.997c0-5.523-4.478-10-10-10H11.376c-5.522,0-10,4.477-10,10c0,5.523,4.478,10,10,10h65.198
	C82.097,330.997,86.574,326.52,86.574,320.997z"/>
<path d="M110.987,310.997c-5.522,0-10,4.477-10,10c0,5.523,4.478,10,10,10h49.796c5.522,0,10-4.477,10-10c0-5.523-4.478-10-10-10
	H110.987z"/>
<path d="M160.783,390.986h-18.619c-5.522,0-10,4.477-10,10s4.478,10,10,10h18.619c5.522,0,10-4.477,10-10
	S166.306,390.986,160.783,390.986z"/>
<path d="M112.289,400.997c0-5.523-4.478-10-10-10H11.376c-5.522,0-10,4.477-10,10s4.478,10,10,10h90.913
	C107.812,410.997,112.289,406.52,112.289,400.997z"/>
<path d="M11.376,350.995c-5.522,0-10,4.477-10,10s4.478,10,10,10h32.6c5.522,0,10-4.477,10-10s-4.478-10-10-10H11.376z"/>
<path d="M160.783,350.995H92c-5.522,0-10,4.477-10,10s4.478,10,10,10h68.783c5.522,0,10-4.477,10-10
	S166.306,350.995,160.783,350.995z"/>
<path d="M247.571,330.997h155.556c5.522,0,10-4.477,10-10c0-5.523-4.478-10-10-10H247.571c-5.522,0-10,4.477-10,10
	C237.571,326.52,242.049,330.997,247.571,330.997z"/>
<path d="M403.13,391c-2.64,0-5.21,1.06-7.07,2.93c-1.87,1.86-2.93,4.43-2.93,7.07c0,2.63,1.06,5.21,2.93,7.07
	c1.86,1.86,4.431,2.93,7.07,2.93c2.63,0,5.2-1.07,7.07-2.93c1.859-1.86,2.93-4.44,2.93-7.07c0-2.64-1.07-5.21-2.93-7.07
	C408.33,392.06,405.76,391,403.13,391z"/>
<path d="M362.5,390.997H247.571c-5.522,0-10,4.477-10,10s4.478,10,10,10H362.5c5.522,0,10-4.477,10-10
	S368.022,390.997,362.5,390.997z"/>
<path d="M247.571,370.995h155.556c5.522,0,10-4.477,10-10s-4.478-10-10-10H247.571c-5.522,0-10,4.477-10,10
	S242.049,370.995,247.571,370.995z"/>
<path d="M30.227,275.991c1.953,1.953,4.512,2.929,7.071,2.929s5.118-0.977,7.071-2.929c3.905-3.905,3.905-10.237,0-14.142
	l-18.852-18.852l18.852-18.852c3.905-3.905,3.905-10.237,0-14.142c-3.906-3.905-10.236-3.905-14.143,0L4.305,235.927
	c-3.905,3.905-3.905,10.237,0,14.142L30.227,275.991z"/>
<path d="M123.631,275.992c1.953,1.953,4.512,2.929,7.071,2.929s5.118-0.977,7.071-2.929l25.922-25.922
	c3.905-3.905,3.905-10.237,0-14.142l-25.922-25.922c-3.904-3.905-10.234-3.905-14.143,0c-3.905,3.905-3.905,10.237,0,14.142
	L142.482,243l-18.852,18.852C119.726,265.755,119.726,272.086,123.631,275.992z"/>
<path d="M60.633,282.761c1.592,0.936,3.335,1.38,5.057,1.38c3.429,0,6.769-1.765,8.631-4.935l36.602-62.283
	c2.799-4.761,1.207-10.89-3.555-13.688c-4.763-2.799-10.891-1.207-13.688,3.555l-36.602,62.283
	C54.279,273.834,55.871,279.963,60.633,282.761z"/>
</svg>
