<?xml version="1.0" encoding="utf-8"?>
<!-- Generator: Adobe Illustrator 19.0.1, SVG Export Plug-In . SVG Version: 6.00 Build 0)  -->
<svg version="1.1" id="Capa_1" xmlns="http://www.w3.org/2000/svg" xmlns:xlink="http://www.w3.org/1999/xlink" x="0px" y="0px"
	 viewBox="-273 404.9 16 32" style="enable-background:new -273 404.9 16 32;" xml:space="preserve">
<g>
	<g id="Clip">
		<g>
			<path d="M-265,404.9c-4.4,0-8,3.6-8,8v18c0,3.3,2.7,6,6,6s6-2.7,6-6v-18c0-2.2-1.8-4-4-4s-4,1.8-4,4v15c0,0.6,0.4,1,1,1
				c0.6,0,1-0.4,1-1v-15c0-1.1,0.9-2,2-2c1.1,0,2,0.9,2,2v18c0,2.2-1.8,4-4,4c-2.2,0-4-1.8-4-4v-18c0-3.3,2.7-6,6-6s6,2.7,6,6v15
				c0,0.6,0.4,1,1,1s1-0.4,1-1v-15C-257,408.5-260.6,404.9-265,404.9z"/>
		</g>
	</g>
</g>
</svg>
