<?xml version="1.0" encoding="utf-8"?>
<!-- Generator: Adobe Illustrator 22.1.0, SVG Export Plug-In . SVG Version: 6.00 Build 0)  -->
<svg version="1.1" id="Capa_1" xmlns="http://www.w3.org/2000/svg" xmlns:xlink="http://www.w3.org/1999/xlink" x="0px" y="0px"
	 viewBox="0 0 512 512" style="enable-background:new 0 0 512 512;" xml:space="preserve">
<style type="text/css">
	.st0{fill:#E4B67B;}
</style>
<path d="M75.4,441.3L52.6,504h406.8l-22.8-62.7c-9.1-25-31.1-42.9-57.5-46.7l-5.9-0.8c27.4-9.2,51-28.1,65.7-53.8l6.8-12H432
	c-26.5,0-48-21.5-48-48v-56c0-47.6-26.2-91-68.5-113.3l-1-0.5l5.3,21.8c30,20.8,48.2,54.9,48.2,92v56c0,30.5,21.5,56.2,50.2,62.5
	c-19.3,25.9-50,41.5-82.7,41.5H312v-18.2c24.2-17.5,40-45.8,40-77.8v-48h-16v48c0,44.1-35.9,80-80,80s-80-35.9-80-80v-48h-16v48
	c0,32,15.8,60.4,40,77.8V384h-23.5c-32.7,0-63.4-15.6-82.7-41.5c28.7-6.3,50.2-32,50.2-62.5v-56c0-37.2,18.3-71.4,48.2-92l5.3-21.8
	l-1.2,0.6C154.2,133,128,176.4,128,224v56c0,26.5-21.5,48-48,48H66.2l6.8,12c14.7,25.7,38.3,44.7,65.7,53.8l-5.9,0.8
	C106.5,398.4,84.5,416.3,75.4,441.3z M216,375.2c12.2,5.6,25.7,8.8,40,8.8s27.8-3.2,40-8.8v12.6l-40,26.7l-40-26.7V375.2z
	 M206.1,400.3l49.9,33.3l49.9-33.3l71,10.2c20.5,2.9,37.6,16.8,44.7,36.3l15,41.2H75.4l15-41.2c7.1-19.5,24.2-33.4,44.7-36.3
	L206.1,400.3z"/>
<path class="st0" d="M304,178.3c10.3-11.7,16-26.6,16-42.3c0-1.4-0.1-2.7-0.2-4l-5.3-21.8C304.5,87.7,282.1,72,256,72
	s-48.5,15.7-58.5,38.2l-5.3,21.8c-0.1,1.3-0.2,2.7-0.2,4c0,15.7,5.7,30.6,16,42.3v5.7h-16v16h16v32h96v-32h16v-16h-16V178.3z
	 M288,216h-64v-16h64V216z M248,136c0-4.4,3.6-8,8-8s8,3.6,8,8c0,4.4-3.6,8-8,8S248,140.4,248,136z M290.3,169.6l-2.3,2.3V184h-24
	v-25.5c9.3-3.3,16-12.1,16-22.5c0-13.2-10.8-24-24-24s-24,10.8-24,24c0,10.4,6.7,19.2,16,22.5V184h-24v-12.1l-2.3-2.3
	c-8.8-9-13.7-21-13.7-33.6c0-26.5,21.5-48,48-48s48,21.5,48,48C304,148.6,299.1,160.5,290.3,169.6z"/>
<rect x="248" y="8" class="st0" width="16" height="40"/>
<rect x="174.5" y="46.5" transform="matrix(0.7071 -0.7071 0.7071 0.7071 9.2756 147.3149)" class="st0" width="16" height="32"/>
<rect x="313.5" y="54.5" transform="matrix(0.7071 -0.7071 0.7071 0.7071 52.3389 251.3095)" class="st0" width="32" height="16"/>
<path class="st0" d="M32,160c-13.2,0-24,10.8-24,24s10.8,24,24,24s24-10.8,24-24S45.2,160,32,160z M32,192c-4.4,0-8-3.6-8-8
	s3.6-8,8-8s8,3.6,8,8S36.4,192,32,192z"/>
<path class="st0" d="M480,160c-13.2,0-24,10.8-24,24s10.8,24,24,24s24-10.8,24-24S493.2,160,480,160z M480,192c-4.4,0-8-3.6-8-8
	s3.6-8,8-8s8,3.6,8,8S484.4,192,480,192z"/>
<rect x="472" y="232" class="st0" width="16" height="16"/>
<rect x="472" y="280" class="st0" width="16" height="16"/>
<rect x="472" y="328" class="st0" width="16" height="16"/>
<rect x="24" y="232" class="st0" width="16" height="16"/>
<rect x="24" y="280" class="st0" width="16" height="16"/>
<rect x="24" y="328" class="st0" width="16" height="16"/>
</svg>
