<?xml version="1.0" encoding="iso-8859-1"?>
<!-- Generator: Adobe Illustrator 19.0.1, SVG Export Plug-In . SVG Version: 6.00 Build 0)  -->
<svg version="1.1" id="Capa_1" xmlns="http://www.w3.org/2000/svg" xmlns:xlink="http://www.w3.org/1999/xlink" x="0px" y="0px"
	 viewBox="-49 141 512 512" style="enable-background:new -49 141 512 512;" xml:space="preserve">
<path d="M206.728,398.944c-5.784-20.248-22.208-35.392-42.856-39.52L119,350.44v-2.104c14.8-8.592,25.824-22.928,30.048-39.952
	C163.808,305.544,175,292.576,175,277v-40c0-48.52-39.48-88-88-88s-88,39.48-88,88v40c0,15.576,11.192,28.544,25.952,31.392
	C29.176,325.416,40.2,339.752,55,348.344v2.104l-44.864,8.976c-20.656,4.128-37.08,19.272-42.864,39.52L-43.608,437H217.6
	L206.728,398.944z M71,354.896C76.128,356.224,81.464,357,87,357s10.872-0.776,16-2.104V357c0,8.824-7.176,16-16,16s-16-7.176-16-16
	V354.896z M151,290.776v-27.552c4.76,2.776,8,7.88,8,13.776S155.76,288,151,290.776z M87,165c39.696,0,72,32.304,72,72v12.448
	c-4.728-2.752-10.144-4.448-16-4.448h-14.056c-19.752,0-38.32-7.688-52.288-21.656l-6.896-6.904l-8.104,12.152
	C54.808,238.864,43.344,245,31,245c-5.856,0-11.272,1.696-16,4.448V237C15,197.304,47.304,165,87,165z M15,277
	c0-5.896,3.24-11,8-13.776v27.552C18.24,288,15,282.896,15,277z M39,293v-32.68c13.136-2.008,25.072-8.816,33.392-19.312
	C88.352,253.96,108.104,261,128.944,261H135v32c0,26.472-21.528,48-48,48S39,319.472,39,293z M157.248,421l-6.488-25.944
	l-15.52,3.88L140.752,421H33.248l5.512-22.056l-15.52-3.88L16.752,421h-39.144l5.048-17.664
	c4.136-14.464,15.864-25.288,30.616-28.232l43.312-8.664C60.64,379.456,72.664,389,87,389s26.36-9.544,30.416-22.56l43.32,8.664
	c14.752,2.952,26.48,13.768,30.616,28.232l5.04,17.664H157.248z"/>
<path d="M446.728,606.944c-4.688-16.432-16.456-29.384-31.728-35.936V445c0-48.52-39.48-88-88-88s-88,39.48-88,88v126.008
	c-15.28,6.552-27.04,19.504-31.728,35.936L196.392,645H457.6L446.728,606.944z M255,566.448v-53.896
	c3.056,1.784,6.368,3.152,9.952,3.84c4.224,17.024,15.248,31.36,30.048,39.952v2.104L255,566.448z M391,471.224
	c4.76,2.776,8,7.88,8,13.776s-3.24,11-8,13.776V471.224z M327,549c-26.472,0-48-21.528-48-48v-32h6.056
	c20.832,0,40.592-7.04,56.552-19.992c8.312,10.488,20.248,17.304,33.392,19.312V501C375,527.472,353.472,549,327,549z M263,498.776
	c-4.76-2.776-8-7.88-8-13.776s3.24-11,8-13.776V498.776z M311,562.896c5.128,1.328,10.464,2.104,16,2.104s10.872-0.776,16-2.104V565
	c0,8.824-7.176,16-16,16s-16-7.176-16-16V562.896z M359,556.344c14.8-8.592,25.824-22.928,30.048-39.952
	c3.584-0.688,6.896-2.056,9.952-3.84v53.896l-40-8V556.344z M327,373c39.696,0,72,32.304,72,72v12.448
	c-4.728-2.752-10.144-4.448-16-4.448c-12.344,0-23.808-6.136-30.656-16.408l-8.104-12.152l-6.896,6.904
	C323.376,445.312,304.808,453,285.056,453H271c-5.856,0-11.272,1.696-16,4.448V445C255,405.304,287.304,373,327,373z M397.248,629
	l-6.488-25.944l-15.52,3.88L380.752,629H273.248l5.512-22.056l-15.52-3.88L256.752,629h-39.144l5.048-17.664
	c4.136-14.464,15.864-25.288,30.616-28.232l43.312-8.664C300.64,587.456,312.664,597,327,597s26.36-9.544,30.416-22.56l43.32,8.664
	c14.752,2.952,26.48,13.768,30.616,28.232l5.04,17.664H397.248z"/>
<path style="fill:#E4B67B;" d="M36.096,484.488l31.328,15.664l7.16-14.312l-55.16-27.576l-27.576,55.16l14.312,7.16l15.024-30.048
	c29.808,58.944,87.16,101.304,152.552,111.824l2.536-15.8C116.36,576.92,63.776,538.288,36.096,484.488z"/>
<path style="fill:#E4B67B;" d="M239,293h48v54.952L369.424,293H431c13.232,0,24-10.768,24-24v-96c0-13.232-10.768-24-24-24H239
	c-13.232,0-24,10.768-24,24v96C215,282.232,225.768,293,239,293z M231,173c0-4.408,3.592-8,8-8h192c4.408,0,8,3.592,8,8v96
	c0,4.408-3.592,8-8,8h-66.424L303,318.048V277h-64c-4.408,0-8-3.592-8-8V173z"/>
<path style="fill:#E4B67B;" d="M271,245c13.232,0,24-10.768,24-24s-10.768-24-24-24s-24,10.768-24,24S257.768,245,271,245z M271,213
	c4.408,0,8,3.592,8,8s-3.592,8-8,8s-8-3.592-8-8S266.592,213,271,213z"/>
<path style="fill:#E4B67B;" d="M335,245c13.232,0,24-10.768,24-24s-10.768-24-24-24s-24,10.768-24,24S321.768,245,335,245z M335,213
	c4.408,0,8,3.592,8,8s-3.592,8-8,8s-8-3.592-8-8S330.592,213,335,213z"/>
<path style="fill:#E4B67B;" d="M399,245c13.232,0,24-10.768,24-24s-10.768-24-24-24s-24,10.768-24,24S385.768,245,399,245z M399,213
	c4.408,0,8,3.592,8,8s-3.592,8-8,8s-8-3.592-8-8S394.592,213,399,213z"/>
</svg>
