<?xml version="1.0" encoding="utf-8"?>
<!-- Generator: Adobe Illustrator 19.0.1, SVG Export Plug-In . SVG Version: 6.00 Build 0)  -->
<svg version="1.1" id="Слой_1" xmlns="http://www.w3.org/2000/svg" xmlns:xlink="http://www.w3.org/1999/xlink" x="0px" y="0px"
	 viewBox="0 0 51.2 51.2" style="enable-background:new 0 0 51.2 51.2;" xml:space="preserve">
<style type="text/css">
	.st0{clip-path:url(#SVGID_2_);fill:#E4B67B;}
	.st1{clip-path:url(#SVGID_2_);fill:#1F1F1F;}
</style>
<g>
	<defs>
		<rect id="SVGID_1_" y="0" width="51.2" height="51.2"/>
	</defs>
	<clipPath id="SVGID_2_">
		<use xlink:href="#SVGID_1_"  style="overflow:visible;"/>
	</clipPath>
	<path class="st0" d="M16.8,16v1.6c0,1.9,1.4,3.5,3.2,3.9v4.1c0,1.5,0.6,2.9,1.6,3.9v0.1c0,0,0.1,0,0.1,0c1,1,2.4,1.6,3.9,1.6
		c3.1,0,5.6-2.5,5.6-5.6v-6.4c0-2.2-1.8-4-4-4h-9.6C17.2,15.2,16.8,15.6,16.8,16 M25.6,29.6c-0.7,0-1.4-0.2-2-0.6c1.2-0.7,2-2,2-3.4
		H24c0,1.1-0.7,2-1.7,2.3c-0.5-0.6-0.7-1.4-0.7-2.3v-4h4.8c0,1.9,1.4,3.5,3.2,3.9v0.1C29.6,27.8,27.8,29.6,25.6,29.6 M18.4,16.8h8.8
		c1.3,0,2.4,1.1,2.4,2.4v4.7c-0.9-0.3-1.6-1.2-1.6-2.3v-0.8c0-0.4-0.4-0.8-0.8-0.8h-6.4c-1.3,0-2.4-1.1-2.4-2.4V16.8z"/>
	<path class="st1" d="M49,44c1.3-0.9,2.2-2.3,2.2-4c0-2.7-2.2-4.8-4.8-4.8c-1.7,0-3.1,0.9-4,2.1c-0.9-1.3-2.3-2.1-4-2.1
		c-0.6,0-1.2,0.1-1.8,0.4l0.2,1.7c0.5-0.3,1-0.4,1.6-0.4c1.8,0,3.2,1.4,3.2,3.2c0,1.8-1.4,3.2-3.2,3.2c-0.6,0-1.1-0.2-1.6-0.4v2.5
		c0.5-0.3,1-0.4,1.6-0.4c1.8,0,3.2,1.4,3.2,3.2v3.2h1.6V48c0-1.8,1.4-3.2,3.2-3.2c1.8,0,3.2,1.4,3.2,3.2v3.2h1.6V48
		C51.2,46.3,50.3,44.9,49,44 M42.4,45.3c-0.4-0.5-0.8-1-1.4-1.3c0.5-0.4,1-0.8,1.4-1.4c0.4,0.5,0.8,1,1.3,1.4
		C43.2,44.3,42.8,44.8,42.4,45.3 M46.4,43.2c-1.8,0-3.2-1.4-3.2-3.2c0-1.8,1.4-3.2,3.2-3.2c1.8,0,3.2,1.4,3.2,3.2
		C49.6,41.8,48.2,43.2,46.4,43.2 M17.6,40c0-0.3,0-0.6-0.1-0.8l-5.4-3.9c-1.4,0.2-2.6,1-3.3,2.1c-0.9-1.3-2.3-2.1-4-2.1
		C2.1,35.2,0,37.3,0,40c0,1.7,0.9,3.1,2.2,4C0.8,44.9,0,46.3,0,48v3.2h1.6V48c0-1.8,1.4-3.2,3.2-3.2C6.6,44.8,8,46.2,8,48v3.2h1.6
		V48c0-1.8,1.4-3.2,3.2-3.2S16,46.2,16,48v3.2h1.6V48c0-1.7-0.9-3.1-2.2-4C16.7,43.1,17.6,41.7,17.6,40 M4.8,43.2
		c-1.8,0-3.2-1.4-3.2-3.2c0-1.8,1.4-3.2,3.2-3.2C6.6,36.8,8,38.2,8,40C8,41.8,6.6,43.2,4.8,43.2 M8.8,45.3c-0.4-0.5-0.8-1-1.3-1.3
		c0.5-0.4,1-0.8,1.3-1.4c0.4,0.5,0.8,1,1.3,1.4C9.6,44.3,9.2,44.8,8.8,45.3 M12.8,43.2c-1.8,0-3.2-1.4-3.2-3.2
		c0-1.8,1.4-3.2,3.2-3.2S16,38.2,16,40C16,41.8,14.6,43.2,12.8,43.2"/>
	<path class="st0" d="M36.6,35.6c-0.5-1.6-2-2.8-3.8-2.8H19.4l-4.4-3l-3.3-6.6h1.1v-1.6H9.6v-6.5c1.2-0.2,2.3-0.7,3.1-1.5h0.9
		c2.2,0,4-1.8,4-4V8c0-0.4-0.4-0.8-0.8-0.8h-2.4V6.4c0-0.4-0.4-0.8-0.8-0.8H4C3.6,5.6,3.2,6,3.2,6.4v0.8H0.8C0.4,7.2,0,7.6,0,8v1.6
		c0,2.2,1.8,4,4,4h0.9C5.7,14.4,6.8,15,8,15.1v6.5H4.8v1.6h1.1l4.6,10.7c0.1,0.1,0.1,0.3,0.3,0.3l1.4,1l5.4,3.9l1.7,1.2v10
		c0,0.4,0.4,0.8,0.8,0.8h16c0.4,0,0.8-0.4,0.8-0.8V37.2L36.6,35.6z M14.4,9.6V8.8H16v0.8c0,1.2-0.9,2.2-2.1,2.4
		C14.2,11.2,14.4,10.5,14.4,9.6 M1.6,9.6V8.8h1.6v0.8c0,0.9,0.2,1.7,0.5,2.4C2.5,11.8,1.6,10.8,1.6,9.6 M26.4,34.4h1.3l-1.3,3.5
		V34.4z M24.8,34.4v3.5l-1.3-3.5H24.8z M4.8,9.6V7.2h8v2.4c0,2.2-1.8,4-4,4C6.6,13.6,4.8,11.8,4.8,9.6 M35.2,49.6H32V38.4h-1.6v11.2
		h-9.6V40c0-0.3-0.1-0.5-0.3-0.6l-8.6-6.3l-4.2-9.9h2.3l3.8,7.6c0.1,0.1,0.2,0.2,0.3,0.3l4.8,3.2c0.1,0.1,0.3,0.1,0.4,0.1h2.6l3,8.3
		c0.1,0.3,0.4,0.5,0.8,0.5c0.3,0,0.6-0.2,0.7-0.5l3-8.3h3.4c1.3,0,2.4,1.1,2.4,2.4V49.6z"/>
	<polygon class="st0" points="21.6,6.4 23.2,6.4 23.2,4 25.6,4 25.6,2.4 23.2,2.4 23.2,0 21.6,0 21.6,2.4 19.2,2.4 19.2,4 21.6,4 	
		"/>
</g>
</svg>
