<?xml version="1.0" encoding="iso-8859-1"?>
<!-- Generator: Adobe Illustrator 19.0.1, SVG Export Plug-In . SVG Version: 6.00 Build 0)  -->
<svg version="1.1" id="Capa_1" xmlns="http://www.w3.org/2000/svg" xmlns:xlink="http://www.w3.org/1999/xlink" x="0px" y="0px"
	 viewBox="-49 141 512 512" style="enable-background:new -49 141 512 512;" xml:space="preserve">
<path style="fill:#E4B67B;" d="M238.632,309.198c5.392-6.917,8.335-15.428,8.368-24.198c0-22.091-17.909-40-40-40s-40,17.909-40,40
	c0.033,8.77,2.976,17.281,8.368,24.198c-27.25,2.06-48.323,24.748-48.368,52.076V429c-0.003,4.416,3.575,7.997,7.991,8
	c0.003,0,0.006,0,0.009,0h24v104c-0.003,4.416,3.575,7.997,7.991,8c0.003,0,0.006,0,0.009,0h80c4.416,0.003,7.997-3.575,8-7.991
	c0-0.003,0-0.006,0-0.009V437h24c4.416,0.003,7.997-3.575,8-7.991c0-0.003,0-0.006,0-0.009v-67.727
	C286.955,333.946,265.882,311.258,238.632,309.198z M207,261c13.255,0,24,10.745,24,24s-10.745,24-24,24c-13.255,0-24-10.745-24-24
	C183.014,271.751,193.751,261.014,207,261z M271,421h-16v-72h-16v184h-24V429h-16v104h-24V349h-16v72h-16v-59.727
	c0.023-20.024,16.25-36.25,36.273-36.273h55.453c20.024,0.023,36.25,16.25,36.273,36.273V421z"/>
<path style="fill:#E4B67B;" d="M383,189c0,17.673,14.327,32,32,32s32-14.327,32-32s-14.327-32-32-32
	C397.334,157.018,383.018,171.334,383,189z M431,189c0,8.837-7.163,16-16,16s-16-7.163-16-16s7.163-16,16-16
	C423.832,173.011,430.989,180.168,431,189z"/>
<path style="fill:#E4B67B;" d="M135,189c0,17.673,14.327,32,32,32s32-14.327,32-32s-14.327-32-32-32
	C149.334,157.018,135.018,171.334,135,189z M167,173c8.837,0,16,7.163,16,16s-7.163,16-16,16s-16-7.163-16-16
	C151.011,180.168,158.168,173.011,167,173z"/>
<path style="fill:#E4B67B;" d="M319,541c0,17.673,14.327,32,32,32s32-14.327,32-32s-14.327-32-32-32
	C333.334,509.018,319.018,523.334,319,541z M367,541c0,8.837-7.163,16-16,16s-16-7.163-16-16s7.163-16,16-16
	C359.832,525.011,366.989,532.168,367,541z"/>
<path style="fill:#E4B67B;" d="M-1,629c17.673,0,32-14.327,32-32s-14.327-32-32-32s-32,14.327-32,32
	C-32.982,614.666-18.666,628.982-1,629z M-1,581c8.837,0,16,7.163,16,16s-7.163,16-16,16s-16-7.163-16-16
	C-16.989,588.168-9.832,581.011-1,581z"/>
<path style="fill:#E4B67B;" d="M55,405c17.673,0,32-14.327,32-32s-14.327-32-32-32s-32,14.327-32,32
	C23.018,390.666,37.334,404.982,55,405z M55,357c8.837,0,16,7.163,16,16s-7.163,16-16,16s-16-7.163-16-16
	C39.011,364.168,46.168,357.011,55,357z"/>
<path d="M409.344,239.344l-32,32l11.312,11.312L407,264.312V269c-0.066,57.41-46.59,103.934-104,104v16
	c66.244-0.072,119.928-53.756,120-120v-4.688l18.344,18.344l11.312-11.313l-32-32c-3.122-3.124-8.186-3.125-11.309-0.003
	C409.346,239.342,409.345,239.343,409.344,239.344z"/>
<path d="M59.406,295.462l-13.546-22.579l-13.719,8.234l24,40c2.274,3.788,7.188,5.016,10.977,2.742l40-24l-8.234-13.719
	l-24.213,14.527c8.652-30.157,29.541-55.312,57.596-69.355L125.109,217C93.267,232.9,69.467,261.322,59.406,295.462z"/>
<path d="M93.062,596.836l-19.138-4.028l17.872-13.41l-9.594-12.797l-32,24c-3.533,2.641-4.255,7.645-1.615,11.178
	c0.004,0.006,0.009,0.012,0.013,0.017l24,32l12.797-9.594l-11.244-14.997l15.611,3.286c76.489,16.083,156.201,4.59,225.031-32.445
	l-7.594-14.094C241.7,601.184,165.851,612.123,93.062,596.836z"/>
<polygon points="-19.344,218.656 -1,200.312 17.344,218.656 28.656,207.344 10.312,189 28.656,170.656 17.344,159.344 -1,177.688 
	-19.344,159.344 -30.656,170.656 -12.312,189 -30.656,207.344 "/>
<polygon points="345.344,239.344 327,257.688 308.656,239.344 297.344,250.656 315.688,269 297.344,287.344 308.656,298.656 
	327,280.312 345.344,298.656 356.656,287.344 338.312,269 356.656,250.656 "/>
<polygon points="380.656,458.656 399,440.312 417.344,458.656 428.656,447.344 410.312,429 428.656,410.656 417.344,399.344 
	399,417.688 380.656,399.344 369.344,410.656 387.688,429 369.344,447.344 "/>
<polygon points="121.344,479.344 103,497.688 84.656,479.344 73.344,490.656 91.688,509 73.344,527.344 84.656,538.656 103,520.312 
	121.344,538.656 132.656,527.344 114.312,509 132.656,490.656 "/>
<polygon points="433.344,575.344 415,593.688 396.656,575.344 385.344,586.656 403.688,605 385.344,623.344 396.656,634.656 
	415,616.312 433.344,634.656 444.656,623.344 426.312,605 444.656,586.656 "/>
<polygon points="17.344,415.344 -1,433.688 -19.344,415.344 -30.656,426.656 -12.312,445 -30.656,463.344 -19.344,474.656 
	-1,456.312 17.344,474.656 28.656,463.344 10.312,445 28.656,426.656 "/>
</svg>
