<svg xmlns="http://www.w3.org/2000/svg" xmlns:xlink="http://www.w3.org/1999/xlink" viewBox="0 0 109.68 46.17"><defs><style>.cls-1{fill:url(#linear-gradient);}.cls-2{fill:url(#linear-gradient-2);}.cls-3{fill:url(#linear-gradient-3);}.cls-4{fill:url(#linear-gradient-4);}.cls-5{fill:#ccc;}</style><linearGradient id="linear-gradient" x1="14.66" y1="34.64" x2="8.44" y2="-0.64" gradientUnits="userSpaceOnUse"><stop offset="0" stop-color="#cc9952"/><stop offset="1" stop-color="#e4b67b"/></linearGradient><linearGradient id="linear-gradient-2" x1="43.21" y1="34.65" x2="37.15" y2="0.3" xlink:href="#linear-gradient"/><linearGradient id="linear-gradient-3" x1="73.45" y1="34.65" x2="67.39" y2="0.3" xlink:href="#linear-gradient"/><linearGradient id="linear-gradient-4" x1="100.82" y1="28.44" x2="96.95" y2="6.5" xlink:href="#linear-gradient"/></defs><title>Element</title><g id="Layer_2" data-name="Layer 2"><g id="_1" data-name="1"><path class="cls-1" d="M15.84,14.31c4.56,1.34,7.68,4.84,7.68,9.6A10,10,0,0,1,20,32,12.63,12.63,0,0,1,11.52,35C6.29,35,1.87,32.5,0,27.84l5.66-3.26c.82,2.59,2.79,3.89,5.86,3.89,3.41,0,5.38-1.73,5.38-4.56s-2-4.56-5.38-4.56H10.08L7.54,15.51l6.62-8.65H1V.67H22.13V6.14Z"/><path class="cls-2" d="M30.29,30.19c-2.35-3.21-3.55-7.44-3.55-12.72S27.94,8,30.29,4.8A11.65,11.65,0,0,1,40.18,0a11.55,11.55,0,0,1,9.89,4.8c2.35,3.17,3.55,7.39,3.55,12.67S52.42,27,50.07,30.19A11.65,11.65,0,0,1,40.18,35,11.75,11.75,0,0,1,30.29,30.19ZM40.18,6.43c-4.47,0-6.82,3.89-6.82,11s2.35,11,6.82,11S47,24.58,47,17.47,44.64,6.43,40.18,6.43Z"/><path class="cls-3" d="M60.53,30.19C58.18,27,57,22.75,57,17.47S58.18,8,60.53,4.8A11.65,11.65,0,0,1,70.42,0a11.55,11.55,0,0,1,9.89,4.8c2.35,3.17,3.55,7.39,3.55,12.67S82.66,27,80.31,30.19A11.65,11.65,0,0,1,70.42,35,11.75,11.75,0,0,1,60.53,30.19ZM70.42,6.43c-4.47,0-6.82,3.89-6.82,11s2.35,11,6.82,11,6.86-3.89,6.86-11S74.88,6.43,70.42,6.43Z"/><path class="cls-4" d="M109.68,14.55v5.8h-7.92v7.92H96V20.35H88.08v-5.8H96V6.67h5.81v7.88Z"/><rect class="cls-5" y="45.17" width="100" height="1"/></g></g></svg>