<svg xmlns="http://www.w3.org/2000/svg" xmlns:xlink="http://www.w3.org/1999/xlink" viewBox="0 0 109.68 45.33"><defs><style>.cls-1{fill:#ccc;}.cls-2{fill:url(#linear-gradient);}.cls-3{fill:url(#linear-gradient-2);}.cls-4{fill:url(#linear-gradient-3);}.cls-5{fill:url(#linear-gradient-4);}</style><linearGradient id="linear-gradient" x1="14.76" y1="35.87" x2="8.51" y2="0.44" gradientUnits="userSpaceOnUse"><stop offset="0" stop-color="#cc9952"/><stop offset="1" stop-color="#e4b67b"/></linearGradient><linearGradient id="linear-gradient-2" x1="43.18" y1="34.65" x2="37.12" y2="0.3" xlink:href="#linear-gradient"/><linearGradient id="linear-gradient-3" x1="73.42" y1="34.65" x2="67.36" y2="0.3" xlink:href="#linear-gradient"/><linearGradient id="linear-gradient-4" x1="100.79" y1="28.44" x2="96.93" y2="6.5" xlink:href="#linear-gradient"/></defs><title>Element</title><g id="Layer_2" data-name="Layer 2"><g id="_4" data-name="4"><rect class="cls-1" x="0.02" y="44.33" width="100" height="1"/><path class="cls-2" d="M1.32,34.27V29.33L12.79,17.52c2.55-2.69,3.84-4.94,3.84-6.72a4.15,4.15,0,0,0-4.36-4.37c-2.55,0-4.42,1.3-5.62,3.94L1.08,7.1A11.9,11.9,0,0,1,12.17,0,11.42,11.42,0,0,1,20,2.88a9.69,9.69,0,0,1,3.27,7.68c0,3.5-1.83,7.06-5.52,10.75l-6.58,6.58H23.79v6.38Z"/><path class="cls-3" d="M30.26,30.19c-2.35-3.21-3.55-7.44-3.55-12.72S27.91,8,30.26,4.8A11.66,11.66,0,0,1,40.15,0,11.53,11.53,0,0,1,50,4.8c2.35,3.17,3.55,7.39,3.55,12.67S52.39,27,50,30.19A11.62,11.62,0,0,1,40.15,35,11.76,11.76,0,0,1,30.26,30.19ZM40.15,6.43c-4.46,0-6.81,3.89-6.81,11s2.35,11,6.81,11S47,24.58,47,17.47,44.62,6.43,40.15,6.43Z"/><path class="cls-4" d="M60.5,30.19C58.15,27,57,22.75,57,17.47S58.15,8,60.5,4.8A11.66,11.66,0,0,1,70.39,0a11.53,11.53,0,0,1,9.89,4.8c2.35,3.17,3.55,7.39,3.55,12.67S82.63,27,80.28,30.19A11.62,11.62,0,0,1,70.39,35,11.76,11.76,0,0,1,60.5,30.19ZM70.39,6.43c-4.46,0-6.81,3.89-6.81,11s2.35,11,6.81,11,6.87-3.89,6.87-11S74.86,6.43,70.39,6.43Z"/><path class="cls-5" d="M109.66,14.55v5.8h-7.92v7.92H95.93V20.35H88.06v-5.8h7.87V6.67h5.81v7.88Z"/></g></g></svg>