<svg xmlns="http://www.w3.org/2000/svg" xmlns:xlink="http://www.w3.org/1999/xlink" viewBox="0 0 111.46 45.5"><defs><style>.cls-1{fill:#ccc;}.cls-2{fill:url(#linear-gradient);}.cls-3{fill:url(#linear-gradient-2);}.cls-4{fill:url(#linear-gradient-3);}.cls-5{fill:url(#linear-gradient-4);}</style><linearGradient id="linear-gradient" x1="14.87" y1="35.63" x2="8.78" y2="1.1" gradientUnits="userSpaceOnUse"><stop offset="0" stop-color="#cc9952"/><stop offset="1" stop-color="#e4b67b"/></linearGradient><linearGradient id="linear-gradient-2" x1="44.98" y1="34.65" x2="38.92" y2="0.3" xlink:href="#linear-gradient"/><linearGradient id="linear-gradient-3" x1="75.22" y1="34.65" x2="69.16" y2="0.3" xlink:href="#linear-gradient"/><linearGradient id="linear-gradient-4" x1="102.59" y1="28.44" x2="98.72" y2="6.5" xlink:href="#linear-gradient"/></defs><title>Element</title><g id="Layer_2" data-name="Layer 2"><g id="_2" data-name="2"><rect class="cls-1" y="44.5" width="100" height="1"/><path class="cls-2" d="M26.16,22.42v6.14h-3.6v5.71H15.89V28.56H0V22.42L11.19.67h7.1L7.15,22.42h8.74v-8h6.67v8Z"/><path class="cls-3" d="M32.06,30.19c-2.35-3.21-3.55-7.44-3.55-12.72S29.71,8,32.06,4.8A11.66,11.66,0,0,1,42,0a11.53,11.53,0,0,1,9.89,4.8c2.35,3.17,3.55,7.39,3.55,12.67S54.19,27,51.84,30.19A11.62,11.62,0,0,1,42,35,11.76,11.76,0,0,1,32.06,30.19ZM42,6.43c-4.46,0-6.81,3.89-6.81,11s2.35,11,6.81,11,6.87-3.89,6.87-11S46.42,6.43,42,6.43Z"/><path class="cls-4" d="M62.3,30.19C60,27,58.75,22.75,58.75,17.47S60,8,62.3,4.8A11.66,11.66,0,0,1,72.19,0a11.53,11.53,0,0,1,9.89,4.8c2.35,3.17,3.55,7.39,3.55,12.67S84.43,27,82.08,30.19A11.62,11.62,0,0,1,72.19,35,11.76,11.76,0,0,1,62.3,30.19ZM72.19,6.43c-4.46,0-6.81,3.89-6.81,11s2.35,11,6.81,11,6.87-3.89,6.87-11S76.66,6.43,72.19,6.43Z"/><path class="cls-5" d="M111.46,14.55v5.8h-7.92v7.92H97.73V20.35H89.85v-5.8h7.88V6.67h5.81v7.88Z"/><rect class="cls-1" y="44.5" width="100" height="1"/></g></g></svg>