<?xml version="1.0" encoding="utf-8"?>
<!-- Generator: Adobe Illustrator 19.0.1, SVG Export Plug-In . SVG Version: 6.00 Build 0)  -->
<svg version="1.1" id="Layer_1" xmlns="http://www.w3.org/2000/svg" xmlns:xlink="http://www.w3.org/1999/xlink" x="0px" y="0px"
	 viewBox="0 0 288 495.8" style="enable-background:new 0 0 288 495.8;" xml:space="preserve">
<style type="text/css">
	.st0{fill:#E4B67B;}
</style>
<g>
	<path class="st0" d="M139.8,495.8c0-5.3,4.8-12.2,4.8-22.3c0-15.2-13-39.9-78.1-86.6C32.2,357.8,0,328.4,0,278.6
		C0,163.9,147.1,102.1,147.1,10c0-3.3-0.2-6.7-0.6-10c5.1,2.4,39.1,43.3,39.1,90.4c0,80.5-105.1,129.2-105.1,203
		c0,26.9,16.6,47.2,32.6,69.5c22.5,30.2,44.2,56.9,44.2,86.5C157.2,463.9,152.9,479.1,139.8,495.8z M285.8,254.4
		c1.5,8.4,2.2,16.6,2.2,24.6c0,51.8-29.4,97.5-67.3,136.8c-1,1-2.2,2.4-3.2,2.4c-3.6,0-35.5-41.6-35.5-53.2c0,0,41.8-55.7,41.8-96.9
		c0-10.8-2.7-21.7-9.1-33.4c-1.5,32.3-55.7,87.7-58.1,87.7c-2.7,0-17.9-22-17.9-42.1c0-5.3,1-10.7,3.2-15.8
		c2.4-5.5,56.6-72,56.6-116.7c0-6.2-1-12-3.4-17.1l-4-7.2C207.8,130,273.7,187.6,285.8,254.4"/>
</g>
</svg>
